# xmcd
#
# Track frame offsets:
#   150
#   18114
#   34951
#   58226
#   76150
#   88490
#   100268
#   115827
#   132856
#   149645
#   164433
#   182684
#   200128
#   215264
#   234099
#
# Disc length: 3311 seconds
#
# Revision: 0
# Processed by: cddbd v1.5.2PL0 Copyright (c) Steve Scherf et al.
# Submitted via: uFREEDB ActiveX Control 1.5
#
DISCID=d30ced0f
DTITLE=Baitaca - O melhor do Baitaca - Vol 1
DYEAR=1900
DGENRE=MÚSICA GAÚCHA
TTITLE0=DO FUNDO DA GROTA
TTITLE1=CASTRAÇÃO A PIALO
TTITLE2=A CAVALO NA VERDADE
TTITLE3=O NOVO ENCONTRO COM O TICO
TTITLE4=DISTORCENDO O BAGUALISMO
TTITLE5=MEU RIO GRANDE É DESSE JEITO
TTITLE6=ESTAMPA DE GALPÃO
TTITLE7=DA DOMA PRO RODEIO
TTITLE8=DOMADOR VENTENA
TTITLE9=FOGO, GALPÃO E CORDEONA
TTITLE10=FRUTAS DA MATA
TTITLE11=MISSIONEIRO EXTRAVIADO
TTITLE12=QUANDO CANTA UM MISSIONEIRO
TTITLE13=HISTÓRIA DO TICO LOUCO
TTITLE14=RECANTO HOSPITALEIRO
EXTD=
EXTT0=
EXTT1=
EXTT2=
EXTT3=
EXTT4=
EXTT5=
EXTT6=
EXTT7=
EXTT8=
EXTT9=
EXTT10=
EXTT11=
EXTT12=
EXTT13=
EXTT14=
PLAYORDER=
